<?xml version="1.0" encoding="utf-8"?>
<!-- Generator: Adobe Illustrator 27.0.0, SVG Export Plug-In . SVG Version: 6.00 Build 0)  -->
<svg version="1.1" id="Layer_1" xmlns="http://www.w3.org/2000/svg" xmlns:xlink="http://www.w3.org/1999/xlink" x="0px" y="0px"
	 viewBox="0 0 200 200" style="enable-background:new 0 0 200 200;" xml:space="preserve">
<style type="text/css">
	.st0{fill:#FFFFFF;}
</style>
<path d="M12.9,145.7c0-4.2,0.2-8.3,0-12.4c-0.4-7.9,3.7-14.2,11.7-16.3c0-0.7,0-1.4,0-2.1c0-9.7,0-19.5,0-29.2
	c0-10.8,7.5-18.2,18.3-18.2c28.5,0,57,0,85.5,0c10.7,0,18.2,7.5,18.2,18.1c0,2.6,0,5.2,0,7.9c4.9,0,9.6,0,14.4,0c0-3.8,0-7.5,0-11.5
	c-2.5,0-5,0-7.5,0c-3.3,0-4.3-1.2-3.8-4.5c0.9-7.1,1.8-14.3,2.7-21.4c0.3-2.2,1.2-3.1,3.4-3.1c5.4,0,10.9,0,16.3,0
	c2.2,0,3.2,0.9,3.5,3c0.9,7.4,1.9,14.8,2.8,22.1c0.3,2.5-0.9,3.8-3.3,3.9c-2.7,0-5.3,0-8.1,0c0,3.9,0,7.6,0,11.6c0.7,0,1.3,0,2,0
	c5.9,0,11.7,0,17.6,0c2.5,0,3.5,1,3.5,3.5c0,21.8,0,43.7,0,65.5c0,2.6-1.1,3.5-3.7,3.5c-8.4,0-16.7,0-25.3,0c0,0.7,0,1.3,0,2
	c0,3.1,0,6.2,0,9.3c0,2.2-1.1,3.3-3.2,3.3c-2.6,0-5.2,0-7.8,0c-1.9,0-3-0.9-3.6-2.7c-1.4-4.4-3-8.8-4.4-13.3
	c-0.4-1.2-0.9-1.5-2.2-1.5c-36.3,0-72.5,0-108.8,0c-1.4,0-1.9,0.5-2.2,1.7c-1.4,4.4-2.9,8.7-4.3,13.1c-0.6,1.9-1.7,2.8-3.7,2.7
	c-2.5-0.1-5.1,0-7.6,0c-2.1,0-3.2-1.1-3.2-3.3c0-9.4,0-18.9,0-28.3C10,147.1,11.1,146.1,12.9,145.7z M152.2,145.7
	c0.1-0.2,0.2-0.3,0.2-0.4c0-4.3,0-8.6,0-12.9c0-6.4-3.4-9.8-9.9-9.8c-30.3,0-60.5,0-90.8,0c-8,0-16.1,0-24.1,0c-4.5,0-8.4,3-8.7,7.4
	c-0.4,5.2-0.1,10.5-0.1,15.8C63.3,145.7,107.7,145.7,152.2,145.7z M140.8,116.7c0-0.7,0-1.3,0-1.8c0-9.7,0-19.5,0-29.2
	c0-7.6-4.8-12.5-12.5-12.5c-28.5,0-57,0-85.5,0c-7.5,0-12.4,4.9-12.4,12.3c0,9.8,0,19.6,0,29.4c0,0.6,0.1,1.2,0.1,1.7
	c2.1,0,4.1,0,5.8,0c0-5.2-0.2-10.3,0.1-15.3c0.2-4.2,3.9-7.7,8.2-7.7c9-0.1,18-0.1,27.1,0c4.4,0.1,8.1,3.8,8.2,8.2
	c0.1,4.9,0,9.9,0,14.9c3.8,0,7.9,0,11.6,0c0-4.7,0-9.3,0-13.9c0-5.6,3.7-9.3,9.4-9.3c8.3,0,16.6,0,24.9,0c5.7,0,9.3,3.6,9.3,9.3
	c0,4.6,0,9.2,0,13.9C136.7,116.7,138.6,116.7,140.8,116.7z M184.2,160.2c0-12.6,0-25.1,0-37.5c-9.6,0-19.1,0-28.9,0
	c2.6,3.5,3,7.4,2.9,11.4c-0.1,3.9,0,7.7,0,11.6c2.5,1,2.9,1.5,2.9,4.1c0,3.5,0,7,0,10.6C168.9,160.2,176.5,160.2,184.2,160.2z
	 M155.2,151.7c-46.5,0-92.9,0-139.2,0c0,2,0,3.8,0,5.6c46.5,0,92.8,0,139.2,0C155.2,155.5,155.2,153.7,155.2,151.7z M184.3,99.4
	c-12.6,0-25.1,0-37.5,0c0,5.8,0,11.5,0,17.2c12.6,0,25,0,37.5,0C184.3,110.9,184.3,105.2,184.3,99.4z M58.1,99.3
	c-4.2,0-8.5,0-12.7,0c-2.4,0-3.4,1.1-3.4,3.4c0,3.5,0,7,0,10.5c0,2.4,1.1,3.4,3.4,3.4c8.4,0,16.7,0,25.1,0c2.4,0,3.4-1.1,3.4-3.4
	c0-3.4,0-6.9,0-10.3c0-2.6-1-3.6-3.6-3.6C66.2,99.3,62.2,99.3,58.1,99.3z M113.1,116.8c4.2,0,8.4,0,12.5,0c2.4,0,3.5-1,3.5-3.4
	c0-3.6,0-7.1,0-10.7c0-2.2-1.1-3.3-3.4-3.3c-8.4,0-16.8,0-25.2,0c-2.3,0-3.3,1.1-3.3,3.4c0,3.5,0,7,0,10.5c0,2.5,1.1,3.5,3.6,3.5
	C104.8,116.8,109,116.8,113.1,116.8z M157.8,58.7c-0.7,5.8-1.4,11.5-2.2,17.3c5.6,0,11.1,0,16.6,0c-0.7-5.8-1.5-11.5-2.2-17.3
	C166,58.7,162,58.7,157.8,58.7z M23.3,163.3c-2.6,0-5,0-7.4,0c0,3.9,0,7.6,0,11.5c0.9,0,1.7,0.1,2.4,0c0.5-0.1,1.3-0.4,1.4-0.7
	C21,170.6,22.1,167.1,23.3,163.3z M155.2,163.3c-2.5,0-4.9,0-7.5,0c1,2.9,1.9,5.7,2.8,8.5c1,3.1,1,3.1,4.3,3c0.1,0,0.2-0.1,0.4-0.2
	C155.2,170.9,155.2,167.2,155.2,163.3z"/>
<path class="st0" d="M152.2,145.7c-44.5,0-88.9,0-133.4,0c0-5.3-0.3-10.6,0.1-15.8c0.3-4.3,4.2-7.3,8.7-7.4c8,0,16.1,0,24.1,0
	c30.3,0,60.5,0,90.8,0c6.4,0,9.9,3.4,9.9,9.8c0,4.3,0,8.6,0,12.9C152.3,145.4,152.3,145.5,152.2,145.7z"/>
<path class="st0" d="M140.8,116.7c-2.2,0-4.1,0-5.8,0c0-4.7,0-9.3,0-13.9c0-5.6-3.7-9.3-9.3-9.3c-8.3,0-16.6,0-24.9,0
	c-5.7,0-9.3,3.6-9.4,9.3c0,4.6,0,9.2,0,13.9c-3.8,0-7.8,0-11.6,0c0-5,0.1-10,0-14.9c-0.1-4.4-3.8-8.1-8.2-8.2c-9-0.1-18-0.1-27.1,0
	c-4.3,0-8,3.5-8.2,7.7c-0.2,5.1-0.1,10.1-0.1,15.3c-1.7,0-3.6,0-5.8,0c0-0.5-0.1-1.1-0.1-1.7c0-9.8,0-19.6,0-29.4
	c0-7.5,4.9-12.3,12.4-12.3c28.5,0,57,0,85.5,0c7.6,0,12.5,4.8,12.5,12.5c0,9.7,0,19.5,0,29.2C140.8,115.4,140.8,116,140.8,116.7z"/>
<path class="st0" d="M184.2,160.2c-7.7,0-15.3,0-23.1,0c0-3.6,0-7.1,0-10.6c0-2.5-0.4-3.1-2.9-4.1c0-3.8-0.1-7.7,0-11.6
	c0.1-4-0.3-7.8-2.9-11.4c9.8,0,19.3,0,28.9,0C184.2,135.1,184.2,147.6,184.2,160.2z"/>
<path class="st0" d="M155.2,151.7c0,1.9,0,3.7,0,5.6c-46.4,0-92.8,0-139.2,0c0-1.8,0-3.6,0-5.6C62.3,151.7,108.7,151.7,155.2,151.7z
	"/>
<path class="st0" d="M184.3,99.4c0,5.8,0,11.5,0,17.2c-12.5,0-25,0-37.5,0c0-5.7,0-11.4,0-17.2C159.2,99.4,171.6,99.4,184.3,99.4z
	 M161.2,110.9c2,0,3.8,0,5.6,0c0-1.9,0-3.7,0-5.6c-1.9,0-3.8,0-5.6,0C161.2,107.2,161.2,108.9,161.2,110.9z"/>
<path class="st0" d="M58.1,99.3c4.1,0,8.1,0,12.2,0c2.6,0,3.6,1,3.6,3.6c0,3.4,0,6.9,0,10.3c0,2.4-1.1,3.4-3.4,3.4
	c-8.4,0-16.7,0-25.1,0c-2.4,0-3.4-1.1-3.4-3.4c0-3.5,0-7,0-10.5c0-2.4,1.1-3.4,3.4-3.4C49.6,99.3,53.9,99.3,58.1,99.3z"/>
<path class="st0" d="M113.1,116.8c-4.1,0-8.2,0-12.3,0c-2.5,0-3.5-1-3.6-3.5c0-3.5,0-7,0-10.5c0-2.3,1.1-3.4,3.3-3.4
	c8.4,0,16.8,0,25.2,0c2.3,0,3.4,1.1,3.4,3.3c0,3.6,0,7.1,0,10.7c0,2.3-1.1,3.4-3.5,3.4C121.4,116.8,117.3,116.8,113.1,116.8z"/>
<path class="st0" d="M157.8,58.7c4.2,0,8.1,0,12.3,0c0.7,5.8,1.4,11.5,2.2,17.3c-5.6,0-11.1,0-16.6,0
	C156.4,70.2,157.1,64.5,157.8,58.7z"/>
<path class="st0" d="M23.3,163.3c-1.2,3.7-2.4,7.3-3.6,10.8c-0.1,0.4-0.9,0.6-1.4,0.7c-0.8,0.1-1.5,0-2.4,0c0-3.9,0-7.6,0-11.5
	C18.3,163.3,20.7,163.3,23.3,163.3z"/>
<path class="st0" d="M155.2,163.3c0,3.9,0,7.6,0,11.3c-0.2,0.1-0.3,0.2-0.4,0.2c-3.3,0.2-3.3,0.2-4.3-3c-0.9-2.8-1.8-5.6-2.8-8.5
	C150.3,163.3,152.7,163.3,155.2,163.3z"/>
<path d="M161.2,110.9c0-1.9,0-3.7,0-5.6c1.9,0,3.7,0,5.6,0c0,1.9,0,3.7,0,5.6C164.9,110.9,163.2,110.9,161.2,110.9z"/>
</svg>
